HIERARCHY
ROOT hip
{
	OFFSET 0.000000 0.000000 0.000000 
	CHANNELS 6 Xposition Yposition Zposition Xrotation Zrotation Yrotation
	JOINT abdomen
	{
		OFFSET 0.000000 3.402643 0.000000 
		CHANNELS 3 Xrotation Zrotation Yrotation
		JOINT chest
		{
			OFFSET 0.000000 8.438565 -0.680529 
			CHANNELS 3 Xrotation Zrotation Yrotation
			JOINT neck
			{
				OFFSET 0.000000 10.207942 -0.272212 
				CHANNELS 3 Xrotation Zrotation Yrotation
				JOINT head
				{
					OFFSET 0.000000 3.130431 0.000000 
					CHANNELS 3 Xrotation Zrotation Yrotation
					End Site
					{
						OFFSET 0.000000 3.130435 0.000000 
					}
				}
			}
			JOINT lCollar
			{
				OFFSET 3.470700 6.669187 -0.816635 
				CHANNELS 3 Yrotation Zrotation Xrotation
				JOINT lShldr
				{
					OFFSET 3.198488 0.000000 0.000000 
					CHANNELS 3 Zrotation Yrotation Xrotation
					JOINT lForeArm
					{
						OFFSET 10.139888 0.000000 0.000000 
						CHANNELS 3 Yrotation Zrotation Xrotation
						JOINT lHand
						{
							OFFSET 8.370511 0.000000 0.000000 
							CHANNELS 3 Zrotation Yrotation Xrotation
							End Site
							{
								OFFSET 4.083176 0.000000 0.000000 
							}
						}
					}
				}
			}
			JOINT rCollar
			{
				OFFSET -3.470700 6.669187 -0.816635 
				CHANNELS 3 Yrotation Zrotation Xrotation
				JOINT rShldr
				{
					OFFSET -3.198488 0.000000 0.000000 
					CHANNELS 3 Zrotation Yrotation Xrotation
					JOINT rForeArm
					{
						OFFSET -10.139888 0.000000 0.000000 
						CHANNELS 3 Yrotation Zrotation Xrotation
						JOINT rHand
						{
							OFFSET -8.370511 0.000000 0.000000 
							CHANNELS 3 Zrotation Yrotation Xrotation
							End Site
							{
								OFFSET -4.083176 0.000000 0.000000 
							}
						}
					}
				}
			}
		}
	}
	JOINT lThigh
	{
		OFFSET 5.308129 -1.633274 1.361059 
		CHANNELS 3 Xrotation Zrotation Yrotation
		JOINT lShin
		{
			OFFSET -2.041588 -20.007561 0.000000 
			CHANNELS 3 Xrotation Zrotation Yrotation
			JOINT lFoot
			{
				OFFSET 0.000000 -19.190928 -1.224953 
				CHANNELS 3 Xrotation Yrotation Zrotation
				End Site
				{
					OFFSET 0.000000 -2.449906 4.627600 
				}
			}
		}
	}
	JOINT rThigh
	{
		OFFSET -5.308129 -1.633274 1.361059 
		CHANNELS 3 Xrotation Zrotation Yrotation
		JOINT rShin
		{
			OFFSET 2.041588 -20.007561 0.000000 
			CHANNELS 3 Xrotation Zrotation Yrotation
			JOINT rFoot
			{
				OFFSET 0.000000 -19.190928 -1.224953 
				CHANNELS 3 Xrotation Yrotation Zrotation
				End Site
				{
					OFFSET 0.000000 -2.449906 4.627600 
				}
			}
		}
	}
}
MOTION
Frames: 18
Frame Time: 0.033333
-62.055397 50.508053 -71.478584 -4.052734 4.394532 46.943359 26.542967 2.812500 -3.554688 -12.539061 8.935546 -3.475045 -9.960937 -2.431641 1.513269 27.822266 -5.830078 0.205078 17.265623 -10.722656 -0.107422 -67.031250 -1.865234 28.583986 -47.460934 3.632813 45.057976 -3.632813 15.224609 -1.061887 -13.662108 4.892578 -0.088724 55.390625 -7.978515 20.839844 41.132813 -3.720703 41.865868 -18.115236 0.410156 -0.341797 -5.262171 12.015535 10.692839 68.791420 0.579999 -3.582289 15.622334 8.804036 -14.475420 -16.862371 -6.150878 -10.520973 38.597534 0.332013 2.297759 -4.267141 -8.282881 11.409946 
-61.338825 50.651894 -70.612854 -3.515625 4.746094 46.592602 27.060545 2.119140 -3.027344 -12.363282 8.574219 -2.587891 -10.156250 -2.285156 1.142189 26.943359 -6.191407 -0.284256 17.119141 -10.507813 -0.029297 -66.708984 -1.035156 28.437323 -46.425781 3.593750 45.273441 -3.632813 15.048828 -1.061918 -13.486329 4.892578 -0.097656 55.546871 -5.781250 21.103514 44.091797 -3.447266 39.893166 -18.457031 -0.058594 -0.175791 -9.423947 11.611422 11.226880 69.848434 0.569251 -3.813127 14.039543 9.246735 -14.323151 -15.905183 -6.638772 -10.309214 39.651440 0.332021 2.345638 -5.004288 -7.815173 11.391397 
-60.621410 50.792728 -69.789902 -2.988281 5.097657 45.889534 27.578125 1.591797 -2.441135 -12.011720 8.222656 -1.875000 -10.341798 -2.128906 0.781250 25.878906 -6.201172 -0.595703 17.294924 -10.507813 0.001781 -66.484375 -0.527344 28.232330 -45.615234 3.554688 45.585331 -3.798828 14.697268 -1.064453 -13.134766 4.726563 -0.176586 55.234375 -3.671875 21.376949 46.992191 -3.369140 38.174400 -18.984375 -0.361328 0.000000 -13.181843 11.032961 11.830846 69.309868 0.931574 -3.537460 12.445710 9.541491 -14.205120 -15.094774 -7.185586 -10.102158 40.520260 0.146386 2.330451 -5.637906 -7.251615 11.221014 
-59.907600 50.924526 -69.024536 -2.646484 5.625000 45.351566 28.271486 0.898438 -1.904144 -11.660155 7.871094 -0.994756 -10.712891 -1.982422 0.419584 25.000000 -6.386718 -0.919055 17.294924 -10.341797 -0.047075 -66.298828 0.253906 27.705097 -44.804684 3.632813 45.770863 -4.140625 14.511719 -1.064453 -12.968749 4.511719 -0.059362 54.902340 -1.533203 21.171875 50.039063 -3.349610 36.943359 -19.521484 -0.361328 0.000000 -15.975780 10.145774 12.496840 67.010086 0.921950 -3.629635 10.619889 9.230702 -13.847920 -14.410215 -8.092805 -10.047132 41.232975 0.338356 2.400891 -5.864608 -6.707973 11.452612 
-59.606670 51.272213 -68.347122 -2.285156 2.460938 44.472656 27.031248 2.265625 -0.253906 -11.845702 7.695313 -0.115880 -11.064452 -1.992188 0.243801 23.945311 -6.396484 -1.054688 17.294924 -10.341797 -0.047075 -66.142578 0.712891 27.041140 -43.994144 3.710938 45.986328 -4.716797 14.316406 -1.237820 -12.792969 4.345703 -0.107422 54.306641 0.361328 20.654316 53.115231 -3.212891 36.083988 -20.048828 -0.361328 0.000000 -21.256409 12.096809 11.782627 63.158855 0.581466 -3.662653 9.960144 8.355931 -13.702320 -14.881103 -5.262771 -8.983648 38.930984 0.527321 2.552506 -4.222362 -7.931843 10.962925 
-58.885387 51.350998 -67.653076 -2.285156 2.978516 43.759766 27.714846 1.787109 0.156555 -11.494141 7.343750 0.421170 -11.074219 -1.835938 0.058281 23.056641 -6.396484 -1.025391 17.294924 -10.507813 0.001781 -65.742188 1.279297 26.445398 -43.300781 3.554688 45.985725 -5.068360 14.306642 -1.240234 -12.792970 4.169922 -0.146484 53.486332 1.748047 20.097954 55.859375 -3.134766 35.302734 -20.751951 -0.185547 -0.009797 -22.430920 10.819840 11.014503 58.080860 -0.091220 -3.462430 8.505122 7.345946 -13.232870 -14.017641 -5.612073 -8.594866 39.820889 0.624898 2.288237 -4.265197 -7.199303 11.100033 
-58.185200 51.402321 -66.971909 -2.285156 2.978516 43.232422 28.232424 1.523438 0.449478 -11.142578 7.167968 0.958250 -11.074219 -1.835938 0.058281 22.353518 -6.406250 -1.172964 17.119141 -10.673829 0.029297 -65.322266 1.796875 26.045229 -42.714844 3.603516 45.927120 -5.458984 14.277344 -1.442904 -12.792970 4.169922 -0.146484 52.822266 2.822266 19.248049 58.466793 -3.095703 34.716801 -21.445313 -0.068359 -0.166027 -22.972406 9.800815 10.094684 52.629417 -0.236471 -3.450781 7.476194 6.180839 -13.001891 -13.139338 -5.778251 -9.078675 40.520954 0.162562 2.316702 -3.974363 -6.671860 11.519261 
-57.502357 51.415939 -66.296547 -2.470703 2.812521 42.715111 28.398438 1.259766 0.742402 -10.966797 7.158204 1.134029 -11.074218 -1.660156 0.038780 21.826172 -6.406250 -0.976563 17.080078 -10.722657 -0.134902 -64.794922 2.431641 25.839844 -42.363281 3.642578 45.966793 -5.644532 14.453126 -1.445312 -12.792970 4.169922 -0.146484 52.294922 3.681641 18.408831 60.654301 -3.125000 34.395065 -22.333984 0.107422 -0.165997 -23.012739 9.108502 8.798963 47.540977 -0.423407 -3.130457 7.219901 4.764904 -12.694316 -12.567171 -5.751206 -9.090605 41.589390 0.331972 2.279197 -3.267329 -6.069475 11.600240 
-56.835178 51.388947 -65.628151 -2.822266 2.460938 42.363701 28.750002 1.259766 0.742402 -10.791016 6.982422 1.308594 -11.064453 -1.474609 0.204827 21.474607 -6.240234 -0.781250 17.080078 -10.722657 -0.134902 -64.414063 2.900391 25.703617 -41.787109 3.593750 46.074219 -5.644532 14.628906 -1.445313 -12.968749 4.169922 -0.137429 52.187500 3.798828 17.675781 62.421871 -3.037110 34.394531 -23.212889 0.097656 -0.165997 -22.521143 8.686996 7.606883 43.501873 -0.409842 -2.911376 6.823717 4.159012 -12.532948 -12.273956 -5.790245 -9.787121 42.981819 0.341794 2.686876 -2.642867 -5.109712 11.415769 
-56.181969 51.322929 -64.973984 -3.173828 2.109375 42.011719 28.750002 1.425781 0.791259 -10.615235 6.982422 1.318359 -11.230469 -1.103516 0.351374 21.298828 -6.064453 -0.606501 16.904299 -10.898437 -0.115341 -64.003906 2.998047 25.605469 -41.083988 3.671875 46.171879 -5.820313 14.619141 -1.442848 -13.144531 4.169922 -0.117898 52.314453 3.613281 17.217413 63.408203 -3.066406 34.424351 -24.091795 0.097656 -0.165997 -21.841949 8.347857 6.265954 40.854824 -0.702107 -2.879879 6.308300 4.121313 -12.690547 -12.233245 -5.759698 -10.480524 44.914856 0.166097 2.699038 -1.280996 -3.918531 11.499818 
-55.545387 51.224625 -64.345352 -3.515625 1.757813 42.011719 28.925779 1.308594 0.576172 -10.439453 6.806641 1.142578 -11.406250 -0.742188 0.507812 21.113281 -5.712890 -0.244141 16.904299 -10.898437 -0.115341 -63.789063 3.007812 25.390627 -40.390625 3.662110 46.415394 -5.869141 14.785155 -1.618602 -13.320313 4.345703 -0.068359 52.617188 2.968750 17.031755 63.818356 -3.046875 34.726563 -24.609375 -0.078125 -0.166029 -21.379599 8.570467 6.084745 39.621258 -0.861716 -2.912031 5.414316 4.379056 -12.448397 -12.762422 -6.454112 -11.512974 47.900352 0.165898 2.845700 0.720987 -2.299806 11.536686 
-54.934235 51.104755 -63.752388 -3.876954 1.572266 41.835941 29.111328 1.181641 0.361529 -10.263673 6.806641 0.976563 -11.748047 -0.556641 0.663969 21.289063 -5.009766 -0.069212 16.904299 -10.898437 -0.115341 -63.779297 2.587891 24.883255 -39.589844 3.583984 46.962280 -6.044921 14.775392 -1.608836 -13.496094 4.345703 -0.059334 53.359375 2.001953 17.128906 63.310547 -3.242188 35.029560 -25.136719 -0.537109 -0.009856 -20.787209 8.689331 5.880720 39.451721 -0.920056 -2.728986 4.207539 4.660101 -12.522455 -13.715951 -7.388421 -12.897141 51.230015 -0.195398 3.021301 2.799678 -0.474036 11.762491 
-54.361263 50.974644 -63.199657 -4.228463 1.406233 41.836533 29.287109 0.888672 0.097808 -10.087891 6.630859 0.801909 -12.089844 -0.195313 0.820312 21.279297 -4.306641 0.282470 16.904299 -10.898437 -0.115341 -63.779297 2.021484 24.306988 -38.798828 3.769531 47.577484 -6.406250 14.941406 -1.611328 -13.662109 4.560547 -0.166792 54.199219 0.937500 17.529297 61.914059 -3.085938 35.253906 -25.146486 -0.810547 0.156250 -19.915958 8.522257 5.720329 39.465084 -0.692182 -2.652841 2.913510 5.290090 -12.522718 -14.910388 -8.572751 -14.384603 54.758133 -0.528945 2.809758 5.222775 1.507600 11.758409 
-53.840702 50.846340 -62.683071 -4.404297 1.406250 42.011719 29.462893 0.595703 -0.165914 -10.087891 6.455078 0.626098 -12.617188 0.000000 0.976563 21.279297 -3.427734 0.458401 16.904299 -11.064453 -0.066485 -63.906250 1.035156 23.388914 -38.378906 3.818360 48.291019 -6.630859 15.087892 -1.784566 -13.837891 4.560547 -0.156250 55.292969 -0.292969 18.124952 59.394531 -3.203125 35.869686 -24.794924 -1.259766 0.312500 -19.409914 8.357173 5.741048 39.794266 -0.868010 -2.728753 1.558940 6.138089 -12.397547 -16.440863 -10.297945 -15.124228 58.419086 -0.566135 3.147245 7.559736 2.162114 11.806698 
-53.384941 50.730923 -62.192135 -4.404297 1.406250 42.187500 29.824219 0.302734 -0.429636 -10.087891 6.279297 0.450287 -13.320313 0.175781 0.966796 21.621094 -2.373047 0.800781 16.904299 -11.230469 -0.007864 -64.033203 0.048828 22.470716 -38.417965 3.681641 48.944683 -6.816406 15.263673 -1.777344 -14.013673 4.726563 -0.097656 56.513672 -1.484375 18.955080 56.132813 -3.251953 36.836491 -23.925781 -1.552734 0.478516 -18.822647 8.415024 5.562345 40.521492 -0.975469 -2.618888 0.418106 6.359742 -12.509313 -17.898613 -12.087831 -16.164959 61.238152 -0.722624 3.170196 9.234714 2.434016 11.264458 
-53.002323 50.637920 -61.715309 -4.228463 1.230453 42.539627 30.000000 -0.156250 -0.742214 -9.912109 6.103515 0.458984 -14.199219 0.175781 0.966796 21.787107 -1.308594 0.800781 16.904299 -11.230469 -0.007864 -64.218750 -0.957031 21.640465 -38.906250 3.867188 49.159496 -6.816406 15.439455 -1.774742 -14.189453 4.726563 -0.087891 57.587887 -2.568359 20.146482 52.148438 -3.369141 38.251953 -22.519531 -1.738281 0.478516 -18.323551 8.346107 5.044835 40.698715 -0.868095 -2.600285 -0.655849 6.717671 -12.335597 -18.952223 -13.843903 -16.833820 62.642170 -0.888685 3.122729 9.793730 1.930798 11.263125 
-52.698246 50.572380 -61.244373 -4.228463 1.230453 42.891190 30.175783 -0.449219 -1.005936 -9.921875 5.927735 0.273437 -15.078126 0.351563 0.957030 22.304689 -0.253906 0.956988 16.904299 -11.230469 -0.007864 -64.335938 -2.011719 20.995752 -39.941406 3.789063 48.837242 -6.484375 15.976563 -1.774656 -14.189454 4.902344 -0.039062 58.486328 -3.554688 21.610720 47.988281 -3.583984 40.253910 -20.761719 -1.748047 0.488281 -18.100811 8.064084 4.575245 40.869556 -0.760799 -2.746019 -1.502017 7.188573 -12.136497 -19.814322 -15.038931 -16.997740 62.817455 -0.888518 3.139568 9.292041 -0.366826 11.919140 
-52.476330 50.533707 -60.774651 -4.052734 1.054688 43.056545 30.351561 -0.615234 -1.054688 -10.097656 5.751953 0.274416 -15.957031 0.351563 0.957090 22.656248 0.449219 0.947266 16.904299 -11.230469 -0.007864 -64.511719 -2.763672 20.595234 -41.640625 3.808594 48.124352 -6.142578 16.337891 -1.777344 -14.355468 5.107422 -0.157119 59.228519 -4.833985 23.290194 44.326172 -3.652344 42.608040 -19.003904 -1.943359 0.497717 -17.643833 8.006365 3.693716 41.054852 -0.744789 -2.759351 -2.115581 7.504201 -11.774734 -20.185341 -16.298550 -16.854229 61.417027 -0.722347 3.351614 8.031508 -2.790673 12.180007 
